<mxfile host="65bd71144e">
    <diagram name="page_1" id="0eeWLhEhAbjt74QTUGkZ">
        <mxGraphModel dx="3498" dy="2487" grid="1" gridSize="10" guides="1" tooltips="1" connect="1" arrows="1" fold="1" page="1" pageScale="1" pageWidth="827" pageHeight="1169" math="0" shadow="0">
            <root>
                <mxCell id="0"/>
                <mxCell id="1" parent="0"/>
                <mxCell id="EA9z76p3zM__a-H7yWGD-37" value="&lt;font style=&quot;font-size: 32px;&quot;&gt;&lt;b&gt;Models and ports&lt;br&gt;&lt;/b&gt;&lt;/font&gt;" style="text;html=1;strokeColor=none;fillColor=none;align=center;verticalAlign=middle;whiteSpace=wrap;rounded=0;" parent="1" vertex="1">
                    <mxGeometry x="950" y="-200" width="380" height="120" as="geometry"/>
                </mxCell>
                <mxCell id="EA9z76p3zM__a-H7yWGD-39" value="&lt;font style=&quot;font-size: 32px;&quot;&gt;&lt;b style=&quot;border-color: var(--border-color); font-size: 12px;&quot;&gt;&lt;font style=&quot;border-color: var(--border-color); font-size: 24px;&quot;&gt;Data visualization&lt;/font&gt;&lt;/b&gt;&lt;b&gt;&lt;br&gt;&lt;/b&gt;&lt;/font&gt;" style="text;html=1;strokeColor=none;fillColor=none;align=center;verticalAlign=middle;whiteSpace=wrap;rounded=0;" parent="1" vertex="1">
                    <mxGeometry x="498.28" y="350" width="430" height="120" as="geometry"/>
                </mxCell>
                <mxCell id="aWoHtGz9jkfwQIE-XJvv-16" value="" style="endArrow=classic;html=1;rounded=0;exitX=0.5;exitY=0;exitDx=0;exitDy=0;" parent="1" source="io5GCxzzSzc3zPwwghzN-176" edge="1">
                    <mxGeometry width="50" height="50" relative="1" as="geometry">
                        <mxPoint x="467" y="850" as="sourcePoint"/>
                        <mxPoint x="640" y="760" as="targetPoint"/>
                    </mxGeometry>
                </mxCell>
                <mxCell id="aWoHtGz9jkfwQIE-XJvv-19" value="" style="endArrow=classic;html=1;rounded=0;exitX=0.25;exitY=0;exitDx=0;exitDy=0;" parent="1" source="io5GCxzzSzc3zPwwghzN-185" edge="1">
                    <mxGeometry width="50" height="50" relative="1" as="geometry">
                        <mxPoint x="819" y="950" as="sourcePoint"/>
                        <mxPoint x="950" y="750" as="targetPoint"/>
                    </mxGeometry>
                </mxCell>
                <mxCell id="io5GCxzzSzc3zPwwghzN-148" value="" style="group" parent="1" vertex="1" connectable="0">
                    <mxGeometry x="590" y="650" width="80" height="110" as="geometry"/>
                </mxCell>
                <mxCell id="io5GCxzzSzc3zPwwghzN-149" value="e_1" style="ellipse;whiteSpace=wrap;html=1;aspect=fixed;fillColor=#dae8fc;strokeColor=#6c8ebf;" parent="io5GCxzzSzc3zPwwghzN-148" vertex="1">
                    <mxGeometry width="80" height="80" as="geometry"/>
                </mxCell>
                <mxCell id="io5GCxzzSzc3zPwwghzN-150" value="flow_n" style="rounded=0;whiteSpace=wrap;html=1;fillColor=#dae8fc;strokeColor=#6c8ebf;" parent="io5GCxzzSzc3zPwwghzN-148" vertex="1">
                    <mxGeometry x="15" y="80" width="50" height="30" as="geometry"/>
                </mxCell>
                <mxCell id="io5GCxzzSzc3zPwwghzN-151" value="" style="group" parent="1" vertex="1" connectable="0">
                    <mxGeometry x="760" y="650" width="80" height="110" as="geometry"/>
                </mxCell>
                <mxCell id="io5GCxzzSzc3zPwwghzN-152" value="e_2" style="ellipse;whiteSpace=wrap;html=1;aspect=fixed;fillColor=#dae8fc;strokeColor=#6c8ebf;" parent="io5GCxzzSzc3zPwwghzN-151" vertex="1">
                    <mxGeometry width="80" height="80" as="geometry"/>
                </mxCell>
                <mxCell id="io5GCxzzSzc3zPwwghzN-153" value="flow_n" style="rounded=0;whiteSpace=wrap;html=1;fillColor=#dae8fc;strokeColor=#6c8ebf;" parent="io5GCxzzSzc3zPwwghzN-151" vertex="1">
                    <mxGeometry x="15" y="80" width="50" height="30" as="geometry"/>
                </mxCell>
                <mxCell id="io5GCxzzSzc3zPwwghzN-154" value="" style="group" parent="1" vertex="1" connectable="0">
                    <mxGeometry x="920" y="650" width="80" height="110" as="geometry"/>
                </mxCell>
                <mxCell id="io5GCxzzSzc3zPwwghzN-155" value="e_3" style="ellipse;whiteSpace=wrap;html=1;aspect=fixed;fillColor=#dae8fc;strokeColor=#6c8ebf;" parent="io5GCxzzSzc3zPwwghzN-154" vertex="1">
                    <mxGeometry width="80" height="80" as="geometry"/>
                </mxCell>
                <mxCell id="io5GCxzzSzc3zPwwghzN-156" value="flow_n" style="rounded=0;whiteSpace=wrap;html=1;fillColor=#dae8fc;strokeColor=#6c8ebf;" parent="io5GCxzzSzc3zPwwghzN-154" vertex="1">
                    <mxGeometry x="15" y="80" width="50" height="30" as="geometry"/>
                </mxCell>
                <mxCell id="io5GCxzzSzc3zPwwghzN-173" value="" style="group" parent="1" vertex="1" connectable="0">
                    <mxGeometry x="576" y="940" width="121.73000000000002" height="150" as="geometry"/>
                </mxCell>
                <mxCell id="io5GCxzzSzc3zPwwghzN-174" value="l_1_2" style="ellipse;whiteSpace=wrap;html=1;" parent="io5GCxzzSzc3zPwwghzN-173" vertex="1">
                    <mxGeometry y="30" width="120" height="80" as="geometry"/>
                </mxCell>
                <mxCell id="io5GCxzzSzc3zPwwghzN-175" value="" style="group;fillColor=#dae8fc;strokeColor=#6c8ebf;" parent="io5GCxzzSzc3zPwwghzN-173" vertex="1" connectable="0">
                    <mxGeometry x="10" width="100" height="30" as="geometry"/>
                </mxCell>
                <mxCell id="io5GCxzzSzc3zPwwghzN-176" value="flow_from" style="rounded=0;whiteSpace=wrap;html=1;fillColor=#dae8fc;strokeColor=#6c8ebf;" parent="io5GCxzzSzc3zPwwghzN-175" vertex="1">
                    <mxGeometry x="-10" width="60" height="30" as="geometry"/>
                </mxCell>
                <mxCell id="io5GCxzzSzc3zPwwghzN-177" value="flow_to" style="rounded=0;whiteSpace=wrap;html=1;fillColor=#dae8fc;strokeColor=#6c8ebf;" parent="io5GCxzzSzc3zPwwghzN-175" vertex="1">
                    <mxGeometry x="50" width="50" height="30" as="geometry"/>
                </mxCell>
                <mxCell id="io5GCxzzSzc3zPwwghzN-181" value="" style="group" parent="1" vertex="1" connectable="0">
                    <mxGeometry x="741.73" y="940" width="121.73000000000002" height="140" as="geometry"/>
                </mxCell>
                <mxCell id="io5GCxzzSzc3zPwwghzN-182" value="l_1_3" style="ellipse;whiteSpace=wrap;html=1;" parent="io5GCxzzSzc3zPwwghzN-181" vertex="1">
                    <mxGeometry y="30" width="120" height="80" as="geometry"/>
                </mxCell>
                <mxCell id="io5GCxzzSzc3zPwwghzN-183" value="" style="group;fillColor=#dae8fc;strokeColor=#6c8ebf;" parent="io5GCxzzSzc3zPwwghzN-181" vertex="1" connectable="0">
                    <mxGeometry x="10" width="100" height="30" as="geometry"/>
                </mxCell>
                <mxCell id="io5GCxzzSzc3zPwwghzN-184" value="flow_from" style="rounded=0;whiteSpace=wrap;html=1;fillColor=#dae8fc;strokeColor=#6c8ebf;" parent="io5GCxzzSzc3zPwwghzN-183" vertex="1">
                    <mxGeometry x="-10" width="60" height="30" as="geometry"/>
                </mxCell>
                <mxCell id="io5GCxzzSzc3zPwwghzN-185" value="flow_to" style="rounded=0;whiteSpace=wrap;html=1;fillColor=#dae8fc;strokeColor=#6c8ebf;" parent="io5GCxzzSzc3zPwwghzN-183" vertex="1">
                    <mxGeometry x="50" width="50" height="30" as="geometry"/>
                </mxCell>
                <mxCell id="io5GCxzzSzc3zPwwghzN-189" value="" style="group" parent="1" vertex="1" connectable="0">
                    <mxGeometry x="931.73" y="940" width="121.73000000000002" height="140" as="geometry"/>
                </mxCell>
                <mxCell id="io5GCxzzSzc3zPwwghzN-190" value="l_2_3" style="ellipse;whiteSpace=wrap;html=1;" parent="io5GCxzzSzc3zPwwghzN-189" vertex="1">
                    <mxGeometry y="30" width="120" height="80" as="geometry"/>
                </mxCell>
                <mxCell id="io5GCxzzSzc3zPwwghzN-191" value="" style="group;fillColor=#dae8fc;strokeColor=#6c8ebf;" parent="io5GCxzzSzc3zPwwghzN-189" vertex="1" connectable="0">
                    <mxGeometry x="10" width="100" height="30" as="geometry"/>
                </mxCell>
                <mxCell id="io5GCxzzSzc3zPwwghzN-192" value="flow_from" style="rounded=0;whiteSpace=wrap;html=1;fillColor=#dae8fc;strokeColor=#6c8ebf;" parent="io5GCxzzSzc3zPwwghzN-191" vertex="1">
                    <mxGeometry x="-10" width="60" height="30" as="geometry"/>
                </mxCell>
                <mxCell id="io5GCxzzSzc3zPwwghzN-193" value="flow_to" style="rounded=0;whiteSpace=wrap;html=1;fillColor=#dae8fc;strokeColor=#6c8ebf;" parent="io5GCxzzSzc3zPwwghzN-191" vertex="1">
                    <mxGeometry x="50" width="50" height="30" as="geometry"/>
                </mxCell>
                <mxCell id="aWoHtGz9jkfwQIE-XJvv-17" value="" style="endArrow=classic;html=1;rounded=0;entryX=0.25;entryY=1;entryDx=0;entryDy=0;" parent="1" target="io5GCxzzSzc3zPwwghzN-153" edge="1">
                    <mxGeometry width="50" height="50" relative="1" as="geometry">
                        <mxPoint x="650" y="940" as="sourcePoint"/>
                        <mxPoint x="636" y="770" as="targetPoint"/>
                    </mxGeometry>
                </mxCell>
                <mxCell id="aWoHtGz9jkfwQIE-XJvv-18" value="" style="endArrow=classic;html=1;rounded=0;exitX=0.5;exitY=0;exitDx=0;exitDy=0;entryX=0.75;entryY=1;entryDx=0;entryDy=0;" parent="1" source="io5GCxzzSzc3zPwwghzN-184" target="io5GCxzzSzc3zPwwghzN-150" edge="1">
                    <mxGeometry width="50" height="50" relative="1" as="geometry">
                        <mxPoint x="639" y="950" as="sourcePoint"/>
                        <mxPoint x="636" y="770" as="targetPoint"/>
                    </mxGeometry>
                </mxCell>
                <mxCell id="aWoHtGz9jkfwQIE-XJvv-20" value="" style="endArrow=classic;html=1;rounded=0;exitX=0.5;exitY=0;exitDx=0;exitDy=0;entryX=0.75;entryY=1;entryDx=0;entryDy=0;" parent="1" source="io5GCxzzSzc3zPwwghzN-192" target="io5GCxzzSzc3zPwwghzN-153" edge="1">
                    <mxGeometry width="50" height="50" relative="1" as="geometry">
                        <mxPoint x="855" y="950" as="sourcePoint"/>
                        <mxPoint x="946" y="760" as="targetPoint"/>
                    </mxGeometry>
                </mxCell>
                <mxCell id="aWoHtGz9jkfwQIE-XJvv-21" value="" style="endArrow=classic;html=1;rounded=0;entryX=0.5;entryY=1;entryDx=0;entryDy=0;exitX=0.25;exitY=0;exitDx=0;exitDy=0;" parent="1" source="io5GCxzzSzc3zPwwghzN-193" target="io5GCxzzSzc3zPwwghzN-156" edge="1">
                    <mxGeometry width="50" height="50" relative="1" as="geometry">
                        <mxPoint x="1046" y="940" as="sourcePoint"/>
                        <mxPoint x="823" y="770" as="targetPoint"/>
                    </mxGeometry>
                </mxCell>
                <mxCell id="gQHjPlM2CJMaZ_1cljnZ-1" value="N1" style="ellipse;whiteSpace=wrap;html=1;aspect=fixed;" parent="1" vertex="1">
                    <mxGeometry x="160" y="-20.400000000000006" width="80" height="80" as="geometry"/>
                </mxCell>
                <mxCell id="gQHjPlM2CJMaZ_1cljnZ-2" value="N2" style="ellipse;whiteSpace=wrap;html=1;aspect=fixed;" parent="1" vertex="1">
                    <mxGeometry x="374" y="-20.400000000000006" width="80" height="80" as="geometry"/>
                </mxCell>
                <mxCell id="gQHjPlM2CJMaZ_1cljnZ-3" value="N3" style="ellipse;whiteSpace=wrap;html=1;aspect=fixed;" parent="1" vertex="1">
                    <mxGeometry x="260" y="159.6" width="80" height="80" as="geometry"/>
                </mxCell>
                <mxCell id="gQHjPlM2CJMaZ_1cljnZ-4" value="" style="endArrow=none;html=1;rounded=0;exitX=1;exitY=1;exitDx=0;exitDy=0;entryX=0;entryY=0;entryDx=0;entryDy=0;" parent="1" source="gQHjPlM2CJMaZ_1cljnZ-1" target="gQHjPlM2CJMaZ_1cljnZ-3" edge="1">
                    <mxGeometry width="50" height="50" relative="1" as="geometry">
                        <mxPoint x="390" y="259.6" as="sourcePoint"/>
                        <mxPoint x="440" y="209.6" as="targetPoint"/>
                    </mxGeometry>
                </mxCell>
                <mxCell id="gQHjPlM2CJMaZ_1cljnZ-5" value="" style="endArrow=none;html=1;rounded=0;exitX=1;exitY=0.5;exitDx=0;exitDy=0;entryX=0;entryY=0.5;entryDx=0;entryDy=0;" parent="1" source="gQHjPlM2CJMaZ_1cljnZ-1" target="gQHjPlM2CJMaZ_1cljnZ-2" edge="1">
                    <mxGeometry width="50" height="50" relative="1" as="geometry">
                        <mxPoint x="210" y="69.6" as="sourcePoint"/>
                        <mxPoint x="272" y="171.6" as="targetPoint"/>
                    </mxGeometry>
                </mxCell>
                <mxCell id="gQHjPlM2CJMaZ_1cljnZ-6" value="" style="endArrow=none;html=1;rounded=0;exitX=0;exitY=1;exitDx=0;exitDy=0;entryX=1;entryY=0;entryDx=0;entryDy=0;" parent="1" source="gQHjPlM2CJMaZ_1cljnZ-2" target="gQHjPlM2CJMaZ_1cljnZ-3" edge="1">
                    <mxGeometry width="50" height="50" relative="1" as="geometry">
                        <mxPoint x="210" y="69.6" as="sourcePoint"/>
                        <mxPoint x="272" y="171.6" as="targetPoint"/>
                    </mxGeometry>
                </mxCell>
                <mxCell id="EA9z76p3zM__a-H7yWGD-36" value="&lt;font style=&quot;font-size: 32px;&quot;&gt;&lt;b&gt;Physical system&lt;br&gt;&lt;/b&gt;&lt;/font&gt;" style="text;html=1;strokeColor=none;fillColor=none;align=center;verticalAlign=middle;whiteSpace=wrap;rounded=0;" parent="1" vertex="1">
                    <mxGeometry x="87" y="-260" width="380" height="120" as="geometry"/>
                </mxCell>
                <mxCell id="28" value="File &quot;network.txt&quot;" style="swimlane;fontStyle=0;childLayout=stackLayout;horizontal=1;startSize=30;horizontalStack=0;resizeParent=1;resizeParentMax=0;resizeLast=0;collapsible=1;marginBottom=0;whiteSpace=wrap;html=1;fillColor=#ccccff;" parent="1" vertex="1">
                    <mxGeometry x="-46" y="480" width="320" height="510" as="geometry"/>
                </mxCell>
                <mxCell id="29" value="e_1, e_2, e_3 : Node" style="text;strokeColor=none;fillColor=none;align=left;verticalAlign=middle;spacingLeft=4;spacingRight=4;overflow=hidden;points=[[0,0.5],[1,0.5]];portConstraint=eastwest;rotatable=0;whiteSpace=wrap;html=1;" parent="28" vertex="1">
                    <mxGeometry y="30" width="320" height="30" as="geometry"/>
                </mxCell>
                <mxCell id="76" value="l_1_2, l_2_3, l_1_3 : Link" style="text;strokeColor=none;fillColor=none;align=left;verticalAlign=middle;spacingLeft=4;spacingRight=4;overflow=hidden;points=[[0,0.5],[1,0.5]];portConstraint=eastwest;rotatable=0;whiteSpace=wrap;html=1;" parent="28" vertex="1">
                    <mxGeometry y="60" width="320" height="30" as="geometry"/>
                </mxCell>
                <mxCell id="129" value="ev_1, ev_2, ev_3 : StockFinalLevel" style="text;strokeColor=none;fillColor=none;align=left;verticalAlign=middle;spacingLeft=4;spacingRight=4;overflow=hidden;points=[[0,0.5],[1,0.5]];portConstraint=eastwest;rotatable=0;whiteSpace=wrap;html=1;" vertex="1" parent="28">
                    <mxGeometry y="90" width="320" height="30" as="geometry"/>
                </mxCell>
                <mxCell id="G6jGmKj02sHsCHb4SvRn-209" value="load_min : DailyLowerBound" style="text;strokeColor=none;fillColor=none;align=left;verticalAlign=middle;spacingLeft=4;spacingRight=4;overflow=hidden;points=[[0,0.5],[1,0.5]];portConstraint=eastwest;rotatable=0;whiteSpace=wrap;html=1;" parent="28" vertex="1">
                    <mxGeometry y="120" width="320" height="30" as="geometry"/>
                </mxCell>
                <mxCell id="77" value="e_1.flow_n l_1_2.flow_from" style="text;strokeColor=none;fillColor=none;align=left;verticalAlign=middle;spacingLeft=4;spacingRight=4;overflow=hidden;points=[[0,0.5],[1,0.5]];portConstraint=eastwest;rotatable=0;whiteSpace=wrap;html=1;" parent="28" vertex="1">
                    <mxGeometry y="150" width="320" height="30" as="geometry"/>
                </mxCell>
                <mxCell id="78" value="e_1.flow_n l_1_3.flow_from" style="text;strokeColor=none;fillColor=none;align=left;verticalAlign=middle;spacingLeft=4;spacingRight=4;overflow=hidden;points=[[0,0.5],[1,0.5]];portConstraint=eastwest;rotatable=0;whiteSpace=wrap;html=1;" parent="28" vertex="1">
                    <mxGeometry y="180" width="320" height="30" as="geometry"/>
                </mxCell>
                <mxCell id="79" value="e_2.flow_n l_1_2.flow_to" style="text;strokeColor=none;fillColor=none;align=left;verticalAlign=middle;spacingLeft=4;spacingRight=4;overflow=hidden;points=[[0,0.5],[1,0.5]];portConstraint=eastwest;rotatable=0;whiteSpace=wrap;html=1;" parent="28" vertex="1">
                    <mxGeometry y="210" width="320" height="30" as="geometry"/>
                </mxCell>
                <mxCell id="80" value="e_2.flow_n l_2_3.flow_from" style="text;strokeColor=none;fillColor=none;align=left;verticalAlign=middle;spacingLeft=4;spacingRight=4;overflow=hidden;points=[[0,0.5],[1,0.5]];portConstraint=eastwest;rotatable=0;whiteSpace=wrap;html=1;" parent="28" vertex="1">
                    <mxGeometry y="240" width="320" height="30" as="geometry"/>
                </mxCell>
                <mxCell id="81" value="e_3.flow_n l_1_3.flow_to" style="text;strokeColor=none;fillColor=none;align=left;verticalAlign=middle;spacingLeft=4;spacingRight=4;overflow=hidden;points=[[0,0.5],[1,0.5]];portConstraint=eastwest;rotatable=0;whiteSpace=wrap;html=1;" parent="28" vertex="1">
                    <mxGeometry y="270" width="320" height="30" as="geometry"/>
                </mxCell>
                <mxCell id="82" value="e_3.flow_n l_2_3.flow_to" style="text;strokeColor=none;fillColor=none;align=left;verticalAlign=middle;spacingLeft=4;spacingRight=4;overflow=hidden;points=[[0,0.5],[1,0.5]];portConstraint=eastwest;rotatable=0;whiteSpace=wrap;html=1;" parent="28" vertex="1">
                    <mxGeometry y="300" width="320" height="30" as="geometry"/>
                </mxCell>
                <mxCell id="133" value="e_1.flow_n ev_1.flow_s" style="text;strokeColor=none;fillColor=none;align=left;verticalAlign=middle;spacingLeft=4;spacingRight=4;overflow=hidden;points=[[0,0.5],[1,0.5]];portConstraint=eastwest;rotatable=0;whiteSpace=wrap;html=1;" vertex="1" parent="28">
                    <mxGeometry y="330" width="320" height="30" as="geometry"/>
                </mxCell>
                <mxCell id="134" value="e_2.flow_n ev_2.flow_s" style="text;strokeColor=none;fillColor=none;align=left;verticalAlign=middle;spacingLeft=4;spacingRight=4;overflow=hidden;points=[[0,0.5],[1,0.5]];portConstraint=eastwest;rotatable=0;whiteSpace=wrap;html=1;" vertex="1" parent="28">
                    <mxGeometry y="360" width="320" height="30" as="geometry"/>
                </mxCell>
                <mxCell id="135" value="e_3.flow_n ev_3.flow_s" style="text;strokeColor=none;fillColor=none;align=left;verticalAlign=middle;spacingLeft=4;spacingRight=4;overflow=hidden;points=[[0,0.5],[1,0.5]];portConstraint=eastwest;rotatable=0;whiteSpace=wrap;html=1;" vertex="1" parent="28">
                    <mxGeometry y="390" width="320" height="30" as="geometry"/>
                </mxCell>
                <mxCell id="139" value="ev_1.flow_in load_min.flow_lb" style="text;strokeColor=none;fillColor=none;align=left;verticalAlign=middle;spacingLeft=4;spacingRight=4;overflow=hidden;points=[[0,0.5],[1,0.5]];portConstraint=eastwest;rotatable=0;whiteSpace=wrap;html=1;" vertex="1" parent="28">
                    <mxGeometry y="420" width="320" height="30" as="geometry"/>
                </mxCell>
                <mxCell id="140" value="ev_2.flow_in load_min.flow_lb" style="text;strokeColor=none;fillColor=none;align=left;verticalAlign=middle;spacingLeft=4;spacingRight=4;overflow=hidden;points=[[0,0.5],[1,0.5]];portConstraint=eastwest;rotatable=0;whiteSpace=wrap;html=1;" vertex="1" parent="28">
                    <mxGeometry y="450" width="320" height="30" as="geometry"/>
                </mxCell>
                <mxCell id="141" value="ev_3.flow_in load_min.flow_lb" style="text;strokeColor=none;fillColor=none;align=left;verticalAlign=middle;spacingLeft=4;spacingRight=4;overflow=hidden;points=[[0,0.5],[1,0.5]];portConstraint=eastwest;rotatable=0;whiteSpace=wrap;html=1;" vertex="1" parent="28">
                    <mxGeometry y="480" width="320" height="30" as="geometry"/>
                </mxCell>
                <mxCell id="36" value="&lt;h1&gt;Study data&lt;/h1&gt;" style="text;html=1;strokeColor=none;fillColor=none;spacing=5;spacingTop=-20;whiteSpace=wrap;overflow=hidden;rounded=0;align=center;" parent="1" vertex="1">
                    <mxGeometry x="-16" y="400" width="250" height="40" as="geometry"/>
                </mxCell>
                <mxCell id="1DZpEdA2Pz-2I5nbqVrt-185" value="min&amp;nbsp;&amp;nbsp;&lt;span style=&quot;&quot;&gt;&lt;/span&gt;production costs + balance costs&lt;br&gt;s.t.&amp;nbsp;&lt;span style=&quot;&quot;&gt;&amp;nbsp; level_ev_i(t+1) = level_ev_i(t) - alpha*out_i(t) + beta*in_i(t) for each node i&lt;br&gt;&lt;span style=&quot;white-space: pre;&quot;&gt;&#9;&lt;/span&gt;sum on each day {in_1 + in_2 + in_3}&amp;nbsp;&amp;nbsp;&amp;gt;= gamma&lt;/span&gt;&amp;nbsp; for each day&lt;br&gt;&lt;span style=&quot;&quot;&gt;&#9;&lt;/span&gt;&lt;span style=&quot;white-space: pre;&quot;&gt;&#9;&lt;/span&gt;balance at elec node&lt;br&gt;&lt;span style=&quot;&quot;&gt;&#9;&lt;/span&gt;&lt;span style=&quot;white-space: pre;&quot;&gt;&#9;&lt;/span&gt;production constraints" style="text;html=1;strokeColor=#CCCCFF;fillColor=none;align=left;verticalAlign=middle;whiteSpace=wrap;rounded=0;dashed=1;dashPattern=1 1;strokeWidth=2;" parent="1" vertex="1">
                    <mxGeometry x="-46" y="-130" width="620" height="70" as="geometry"/>
                </mxCell>
                <mxCell id="1DZpEdA2Pz-2I5nbqVrt-186" value="&lt;i&gt;We represent a network with electric vehicles and we want a minimum daily load across all nodes.&lt;/i&gt;" style="text;html=1;strokeColor=#FFCCCC;fillColor=none;align=left;verticalAlign=middle;whiteSpace=wrap;rounded=0;dashed=1;strokeWidth=2;" parent="1" vertex="1">
                    <mxGeometry x="-80" y="-270" width="534" height="40" as="geometry"/>
                </mxCell>
                <mxCell id="G6jGmKj02sHsCHb4SvRn-201" value="DailyLowerBound : Model" style="swimlane;fontStyle=0;childLayout=stackLayout;horizontal=1;startSize=30;horizontalStack=0;resizeParent=1;resizeParentMax=0;resizeLast=0;collapsible=1;marginBottom=0;whiteSpace=wrap;html=1;fillColor=#CCFFCC;fontColor=#000000;" parent="1" vertex="1">
                    <mxGeometry x="730" width="230" height="120" as="geometry"/>
                </mxCell>
                <mxCell id="G6jGmKj02sHsCHb4SvRn-202" value="lb : Parameter" style="text;strokeColor=none;fillColor=none;align=left;verticalAlign=middle;spacingLeft=4;spacingRight=4;overflow=hidden;points=[[0,0.5],[1,0.5]];portConstraint=eastwest;rotatable=0;whiteSpace=wrap;html=1;" parent="G6jGmKj02sHsCHb4SvRn-201" vertex="1">
                    <mxGeometry y="30" width="230" height="30" as="geometry"/>
                </mxCell>
                <mxCell id="G6jGmKj02sHsCHb4SvRn-203" value="flow_lb : Flow" style="text;strokeColor=none;fillColor=none;align=left;verticalAlign=middle;spacingLeft=4;spacingRight=4;overflow=hidden;points=[[0,0.5],[1,0.5]];portConstraint=eastwest;rotatable=0;whiteSpace=wrap;html=1;" parent="G6jGmKj02sHsCHb4SvRn-201" vertex="1">
                    <mxGeometry y="60" width="230" height="30" as="geometry"/>
                </mxCell>
                <mxCell id="G6jGmKj02sHsCHb4SvRn-204" value="flow_lb.f.sum_day().sum() &amp;gt;= lb" style="text;strokeColor=none;fillColor=none;align=left;verticalAlign=middle;spacingLeft=4;spacingRight=4;overflow=hidden;points=[[0,0.5],[1,0.5]];portConstraint=eastwest;rotatable=0;whiteSpace=wrap;html=1;" parent="G6jGmKj02sHsCHb4SvRn-201" vertex="1">
                    <mxGeometry y="90" width="230" height="30" as="geometry"/>
                </mxCell>
                <mxCell id="84" value="" style="endArrow=classic;html=1;rounded=0;entryX=1;entryY=0.5;entryDx=0;entryDy=0;exitX=0;exitY=0.5;exitDx=0;exitDy=0;startArrow=classic;startFill=1;" edge="1" parent="1" target="86" source="gQHjPlM2CJMaZ_1cljnZ-1">
                    <mxGeometry width="50" height="50" relative="1" as="geometry">
                        <mxPoint x="159.99572875253787" y="1.7157287525378706" as="sourcePoint"/>
                        <mxPoint x="-36.72" y="230" as="targetPoint"/>
                    </mxGeometry>
                </mxCell>
                <mxCell id="86" value="EV 1" style="rounded=1;whiteSpace=wrap;html=1;" vertex="1" parent="1">
                    <mxGeometry x="18.28" y="-20.4" width="90" height="30" as="geometry"/>
                </mxCell>
                <mxCell id="87" value="" style="endArrow=classic;html=1;rounded=0;entryX=1;entryY=0.5;entryDx=0;entryDy=0;exitX=0;exitY=0.5;exitDx=0;exitDy=0;startArrow=classic;startFill=1;" edge="1" parent="1" target="88" source="gQHjPlM2CJMaZ_1cljnZ-3">
                    <mxGeometry width="50" height="50" relative="1" as="geometry">
                        <mxPoint x="257.86" y="219.5999999999999" as="sourcePoint"/>
                        <mxPoint x="61.14" y="430" as="targetPoint"/>
                    </mxGeometry>
                </mxCell>
                <mxCell id="88" value="EV 3" style="rounded=1;whiteSpace=wrap;html=1;" vertex="1" parent="1">
                    <mxGeometry x="116.14" y="179.6" width="90" height="30" as="geometry"/>
                </mxCell>
                <mxCell id="89" value="" style="endArrow=classic;html=1;rounded=0;entryX=0;entryY=0.5;entryDx=0;entryDy=0;exitX=1;exitY=0.5;exitDx=0;exitDy=0;startArrow=classic;startFill=1;" edge="1" parent="1" target="90" source="gQHjPlM2CJMaZ_1cljnZ-2">
                    <mxGeometry width="50" height="50" relative="1" as="geometry">
                        <mxPoint x="640.0000000000001" y="19.59999999999991" as="sourcePoint"/>
                        <mxPoint x="443.28" y="230" as="targetPoint"/>
                    </mxGeometry>
                </mxCell>
                <mxCell id="90" value="EV 2" style="rounded=1;whiteSpace=wrap;html=1;" vertex="1" parent="1">
                    <mxGeometry x="498.28" y="-20.400000000000006" width="90" height="30" as="geometry"/>
                </mxCell>
                <mxCell id="91" value="StockFinalLevel : Model" style="swimlane;fontStyle=0;childLayout=stackLayout;horizontal=1;startSize=30;horizontalStack=0;resizeParent=1;resizeParentMax=0;resizeLast=0;collapsible=1;marginBottom=0;whiteSpace=wrap;html=1;fillColor=#CCFFCC;fontColor=#000000;" vertex="1" parent="1">
                    <mxGeometry x="1030" y="-80" width="270" height="450" as="geometry"/>
                </mxCell>
                <mxCell id="92" value="r, u_in, u_out : Variable" style="text;strokeColor=none;fillColor=none;align=left;verticalAlign=middle;spacingLeft=4;spacingRight=4;overflow=hidden;points=[[0,0.5],[1,0.5]];portConstraint=eastwest;rotatable=0;whiteSpace=wrap;html=1;" vertex="1" parent="91">
                    <mxGeometry y="30" width="270" height="30" as="geometry"/>
                </mxCell>
                <mxCell id="93" value="p_max_in, p_max_out : Parameter" style="text;strokeColor=none;fillColor=none;align=left;verticalAlign=middle;spacingLeft=4;spacingRight=4;overflow=hidden;points=[[0,0.5],[1,0.5]];portConstraint=eastwest;rotatable=0;whiteSpace=wrap;html=1;" vertex="1" parent="91">
                    <mxGeometry y="60" width="270" height="30" as="geometry"/>
                </mxCell>
                <mxCell id="94" value="capacity, initial_level, final_level : Parameter" style="text;strokeColor=none;fillColor=none;align=left;verticalAlign=middle;spacingLeft=4;spacingRight=4;overflow=hidden;points=[[0,0.5],[1,0.5]];portConstraint=eastwest;rotatable=0;whiteSpace=wrap;html=1;" vertex="1" parent="91">
                    <mxGeometry y="90" width="270" height="30" as="geometry"/>
                </mxCell>
                <mxCell id="105" value="alpha, beta : Parameter" style="text;strokeColor=none;fillColor=none;align=left;verticalAlign=middle;spacingLeft=4;spacingRight=4;overflow=hidden;points=[[0,0.5],[1,0.5]];portConstraint=eastwest;rotatable=0;whiteSpace=wrap;html=1;" vertex="1" parent="91">
                    <mxGeometry y="120" width="270" height="30" as="geometry"/>
                </mxCell>
                <mxCell id="95" value="0 &amp;lt;= u_in &amp;lt;= p_max_in" style="text;strokeColor=none;fillColor=none;align=left;verticalAlign=middle;spacingLeft=4;spacingRight=4;overflow=hidden;points=[[0,0.5],[1,0.5]];portConstraint=eastwest;rotatable=0;whiteSpace=wrap;html=1;" vertex="1" parent="91">
                    <mxGeometry y="150" width="270" height="30" as="geometry"/>
                </mxCell>
                <mxCell id="96" value="0 &amp;lt;= u_out &amp;lt;= p_max_out" style="text;strokeColor=none;fillColor=none;align=left;verticalAlign=middle;spacingLeft=4;spacingRight=4;overflow=hidden;points=[[0,0.5],[1,0.5]];portConstraint=eastwest;rotatable=0;whiteSpace=wrap;html=1;" vertex="1" parent="91">
                    <mxGeometry y="180" width="270" height="30" as="geometry"/>
                </mxCell>
                <mxCell id="97" value="r(0) = initial_level" style="text;strokeColor=none;fillColor=none;align=left;verticalAlign=middle;spacingLeft=4;spacingRight=4;overflow=hidden;points=[[0,0.5],[1,0.5]];portConstraint=eastwest;rotatable=0;whiteSpace=wrap;html=1;" vertex="1" parent="91">
                    <mxGeometry y="210" width="270" height="30" as="geometry"/>
                </mxCell>
                <mxCell id="98" value="r(H) = final_level" style="text;strokeColor=none;fillColor=none;align=left;verticalAlign=middle;spacingLeft=4;spacingRight=4;overflow=hidden;points=[[0,0.5],[1,0.5]];portConstraint=eastwest;rotatable=0;whiteSpace=wrap;html=1;" vertex="1" parent="91">
                    <mxGeometry y="240" width="270" height="30" as="geometry"/>
                </mxCell>
                <mxCell id="99" value="0&amp;lt;=r &amp;lt;=capacity" style="text;strokeColor=none;fillColor=none;align=left;verticalAlign=middle;spacingLeft=4;spacingRight=4;overflow=hidden;points=[[0,0.5],[1,0.5]];portConstraint=eastwest;rotatable=0;whiteSpace=wrap;html=1;" vertex="1" parent="91">
                    <mxGeometry y="270" width="270" height="30" as="geometry"/>
                </mxCell>
                <mxCell id="100" value="r(h+1) = r(h) + beta*u_in(h) - alpha*u_out(h)" style="text;strokeColor=none;fillColor=none;align=left;verticalAlign=middle;spacingLeft=4;spacingRight=4;overflow=hidden;points=[[0,0.5],[1,0.5]];portConstraint=eastwest;rotatable=0;whiteSpace=wrap;html=1;" vertex="1" parent="91">
                    <mxGeometry y="300" width="270" height="30" as="geometry"/>
                </mxCell>
                <mxCell id="101" value="flow_s, flow_in, flow_out : Flow" style="text;strokeColor=none;fillColor=none;align=left;verticalAlign=middle;spacingLeft=4;spacingRight=4;overflow=hidden;points=[[0,0.5],[1,0.5]];portConstraint=eastwest;rotatable=0;whiteSpace=wrap;html=1;" vertex="1" parent="91">
                    <mxGeometry y="330" width="270" height="30" as="geometry"/>
                </mxCell>
                <mxCell id="102" value="flow_s.f = u_out - u_in" style="text;strokeColor=none;fillColor=none;align=left;verticalAlign=middle;spacingLeft=4;spacingRight=4;overflow=hidden;points=[[0,0.5],[1,0.5]];portConstraint=eastwest;rotatable=0;whiteSpace=wrap;html=1;" vertex="1" parent="91">
                    <mxGeometry y="360" width="270" height="30" as="geometry"/>
                </mxCell>
                <mxCell id="103" value="flow_in.f= u_in" style="text;strokeColor=none;fillColor=none;align=left;verticalAlign=middle;spacingLeft=4;spacingRight=4;overflow=hidden;points=[[0,0.5],[1,0.5]];portConstraint=eastwest;rotatable=0;whiteSpace=wrap;html=1;" vertex="1" parent="91">
                    <mxGeometry y="390" width="270" height="30" as="geometry"/>
                </mxCell>
                <mxCell id="104" value="flow_out.f = u_out" style="text;strokeColor=none;fillColor=none;align=left;verticalAlign=middle;spacingLeft=4;spacingRight=4;overflow=hidden;points=[[0,0.5],[1,0.5]];portConstraint=eastwest;rotatable=0;whiteSpace=wrap;html=1;" vertex="1" parent="91">
                    <mxGeometry y="420" width="270" height="30" as="geometry"/>
                </mxCell>
                <mxCell id="106" value="" style="group" vertex="1" connectable="0" parent="1">
                    <mxGeometry x="440" y="590" width="120" height="110.5" as="geometry"/>
                </mxCell>
                <mxCell id="110" value="ev_1" style="rounded=1;whiteSpace=wrap;html=1;container=0;" vertex="1" parent="106">
                    <mxGeometry x="15" y="30" width="90" height="30" as="geometry"/>
                </mxCell>
                <mxCell id="107" value="" style="group;fillColor=#f8cecc;strokeColor=#b85450;" vertex="1" connectable="0" parent="106">
                    <mxGeometry x="15" width="100" height="30" as="geometry"/>
                </mxCell>
                <mxCell id="108" value="&lt;font color=&quot;#000000&quot;&gt;flow_in&lt;/font&gt;" style="rounded=0;whiteSpace=wrap;html=1;fillColor=#DAE8FC;strokeColor=#9673a6;" vertex="1" parent="107">
                    <mxGeometry x="-10" width="60" height="30" as="geometry"/>
                </mxCell>
                <mxCell id="109" value="flow_out" style="rounded=0;whiteSpace=wrap;html=1;fillColor=#DAE8FC;strokeColor=#6c8ebf;fontColor=#000000;" vertex="1" parent="107">
                    <mxGeometry x="50" width="50" height="30" as="geometry"/>
                </mxCell>
                <mxCell id="111" value="flow_s" style="rounded=0;whiteSpace=wrap;html=1;fillColor=#DAE8FC;strokeColor=#6c8ebf;fontColor=#000000;" vertex="1" parent="106">
                    <mxGeometry x="35" y="60" width="50" height="30" as="geometry"/>
                </mxCell>
                <mxCell id="112" value="" style="group" vertex="1" connectable="0" parent="1">
                    <mxGeometry x="650" y="550" width="120" height="110.5" as="geometry"/>
                </mxCell>
                <mxCell id="113" value="ev_2" style="rounded=1;whiteSpace=wrap;html=1;container=0;" vertex="1" parent="112">
                    <mxGeometry x="15" y="30" width="90" height="30" as="geometry"/>
                </mxCell>
                <mxCell id="114" value="" style="group;fillColor=#f8cecc;strokeColor=#b85450;" vertex="1" connectable="0" parent="112">
                    <mxGeometry x="15" width="100" height="30" as="geometry"/>
                </mxCell>
                <mxCell id="115" value="&lt;font color=&quot;#000000&quot;&gt;flow_in&lt;/font&gt;" style="rounded=0;whiteSpace=wrap;html=1;fillColor=#DAE8FC;strokeColor=#9673a6;" vertex="1" parent="114">
                    <mxGeometry x="-10" width="60" height="30" as="geometry"/>
                </mxCell>
                <mxCell id="116" value="flow_out" style="rounded=0;whiteSpace=wrap;html=1;fillColor=#DAE8FC;strokeColor=#6c8ebf;fontColor=#000000;" vertex="1" parent="114">
                    <mxGeometry x="50" width="50" height="30" as="geometry"/>
                </mxCell>
                <mxCell id="117" value="flow_s" style="rounded=0;whiteSpace=wrap;html=1;fillColor=#DAE8FC;strokeColor=#6c8ebf;fontColor=#000000;" vertex="1" parent="112">
                    <mxGeometry x="35" y="60" width="50" height="30" as="geometry"/>
                </mxCell>
                <mxCell id="118" value="" style="group" vertex="1" connectable="0" parent="1">
                    <mxGeometry x="960" y="530" width="120" height="110.5" as="geometry"/>
                </mxCell>
                <mxCell id="119" value="ev_3" style="rounded=1;whiteSpace=wrap;html=1;container=0;" vertex="1" parent="118">
                    <mxGeometry x="15" y="30" width="90" height="30" as="geometry"/>
                </mxCell>
                <mxCell id="120" value="" style="group;fillColor=#f8cecc;strokeColor=#b85450;" vertex="1" connectable="0" parent="118">
                    <mxGeometry x="15" width="100" height="30" as="geometry"/>
                </mxCell>
                <mxCell id="121" value="&lt;font color=&quot;#000000&quot;&gt;flow_in&lt;/font&gt;" style="rounded=0;whiteSpace=wrap;html=1;fillColor=#DAE8FC;strokeColor=#9673a6;" vertex="1" parent="120">
                    <mxGeometry x="-10" width="60" height="30" as="geometry"/>
                </mxCell>
                <mxCell id="122" value="flow_out" style="rounded=0;whiteSpace=wrap;html=1;fillColor=#DAE8FC;strokeColor=#6c8ebf;fontColor=#000000;" vertex="1" parent="120">
                    <mxGeometry x="50" width="50" height="30" as="geometry"/>
                </mxCell>
                <mxCell id="123" value="flow_s" style="rounded=0;whiteSpace=wrap;html=1;fillColor=#DAE8FC;strokeColor=#6c8ebf;fontColor=#000000;" vertex="1" parent="118">
                    <mxGeometry x="35" y="60" width="50" height="30" as="geometry"/>
                </mxCell>
                <mxCell id="124" value="load_min" style="rounded=1;whiteSpace=wrap;html=1;container=0;" vertex="1" parent="1">
                    <mxGeometry x="690" y="470" width="90" height="30" as="geometry"/>
                </mxCell>
                <mxCell id="128" value="flow_lb" style="rounded=0;whiteSpace=wrap;html=1;fillColor=#DAE8FC;strokeColor=#6c8ebf;fontColor=#000000;" vertex="1" parent="1">
                    <mxGeometry x="710" y="500" width="50" height="30" as="geometry"/>
                </mxCell>
                <mxCell id="130" value="" style="endArrow=classic;html=1;rounded=0;exitX=1;exitY=1;exitDx=0;exitDy=0;entryX=0;entryY=0.5;entryDx=0;entryDy=0;" edge="1" parent="1" source="111" target="io5GCxzzSzc3zPwwghzN-150">
                    <mxGeometry width="50" height="50" relative="1" as="geometry">
                        <mxPoint x="616" y="950" as="sourcePoint"/>
                        <mxPoint x="650" y="770" as="targetPoint"/>
                    </mxGeometry>
                </mxCell>
                <mxCell id="131" value="" style="endArrow=classic;html=1;rounded=0;exitX=0.5;exitY=1;exitDx=0;exitDy=0;entryX=0;entryY=0.25;entryDx=0;entryDy=0;" edge="1" parent="1" source="117" target="io5GCxzzSzc3zPwwghzN-153">
                    <mxGeometry width="50" height="50" relative="1" as="geometry">
                        <mxPoint x="535" y="690" as="sourcePoint"/>
                        <mxPoint x="615" y="755" as="targetPoint"/>
                    </mxGeometry>
                </mxCell>
                <mxCell id="132" value="" style="endArrow=classic;html=1;rounded=0;exitX=1;exitY=1;exitDx=0;exitDy=0;entryX=1;entryY=0.5;entryDx=0;entryDy=0;" edge="1" parent="1" source="123" target="io5GCxzzSzc3zPwwghzN-156">
                    <mxGeometry width="50" height="50" relative="1" as="geometry">
                        <mxPoint x="720" y="650" as="sourcePoint"/>
                        <mxPoint x="785" y="747.5" as="targetPoint"/>
                    </mxGeometry>
                </mxCell>
                <mxCell id="136" value="" style="endArrow=classic;html=1;rounded=0;exitX=0;exitY=0.25;exitDx=0;exitDy=0;entryX=1;entryY=0.5;entryDx=0;entryDy=0;" edge="1" parent="1" source="121" target="128">
                    <mxGeometry width="50" height="50" relative="1" as="geometry">
                        <mxPoint x="1055" y="630" as="sourcePoint"/>
                        <mxPoint x="995" y="755" as="targetPoint"/>
                    </mxGeometry>
                </mxCell>
                <mxCell id="137" value="" style="endArrow=classic;html=1;rounded=0;exitX=0.75;exitY=0;exitDx=0;exitDy=0;entryX=0;entryY=0.75;entryDx=0;entryDy=0;" edge="1" parent="1" source="115" target="128">
                    <mxGeometry width="50" height="50" relative="1" as="geometry">
                        <mxPoint x="1030" y="570" as="sourcePoint"/>
                        <mxPoint x="873.46" y="535" as="targetPoint"/>
                    </mxGeometry>
                </mxCell>
                <mxCell id="138" value="" style="endArrow=classic;html=1;rounded=0;exitX=0.5;exitY=0;exitDx=0;exitDy=0;entryX=0;entryY=0.25;entryDx=0;entryDy=0;" edge="1" parent="1" source="108" target="128">
                    <mxGeometry width="50" height="50" relative="1" as="geometry">
                        <mxPoint x="975" y="547.5" as="sourcePoint"/>
                        <mxPoint x="873.46" y="535" as="targetPoint"/>
                    </mxGeometry>
                </mxCell>
            </root>
        </mxGraphModel>
    </diagram>
</mxfile>